<?xml version="1.0" encoding="UTF-8"?>
<svg xmlns="http://www.w3.org/2000/svg" version="1.1" xmlns:xlink="http://www.w3.org/1999/xlink" viewBox="0 0 256 256">
  <defs>
    <style>
      .cls-1 {
        fill: none;
      }

      .cls-1, .cls-2 {
        stroke: #231f20;
        stroke-miterlimit: 10;
      }

      .cls-3 {
        fill: #231f20;
        stroke-width: 0px;
      }

      .cls-2 {
        fill: #fff;
      }

      .cls-4 {
        display: none;
      }
    </style>
  </defs>
  <g id="Layer_1" data-name="Layer 1" class="cls-4">
    <image width="720" height="726" transform="translate(5.7 4.7) scale(.3)" xlink:href="Jurassic-1.png"/>
  </g>
  <g id="Layer_2" data-name="Layer 2">
    <rect class="cls-2" x="29.3" y="30.1" width="145.9" height="145.9"/>
    <rect class="cls-2" x="30.5" y="178.6" width="94.5" height="21"/>
    <rect class="cls-2" x="30.5" y="202.9" width="94.5" height="21"/>
    <rect class="cls-2" x="130.4" y="178.6" width="94.5" height="21"/>
    <rect class="cls-2" x="130.4" y="202.9" width="94.5" height="21"/>
    <circle class="cls-2" cx="227.3" cy="113.3" r="5.3"/>
    <circle class="cls-2" cx="227.3" cy="129.1" r="5.3"/>
    <circle class="cls-2" cx="227.3" cy="144.9" r="5.3"/>
    <circle class="cls-2" cx="218.9" cy="36" r="22.9"/>
    <path class="cls-3" d="M169.7,121c-.8-1.6-3-2.8-4.4-3.7-1.4-.9-2.7-1.8-4.2-2.4-1.8-.6-3.2.2-4.9.5.7-.1-.4-3.7-.6-4.1,0-.1-.2-.3-.3-.3-.2,0-.3,0-.5.1-.7.5-1.3,1.2-1.7,2,0,0-.2-.7-.2-.9,0-.5.1-.9.3-1.4.3-.9.7-1.8.7-2.8,0-1.4-4,1-4.5,1.3.1,0-.4-.6-.5-.6,0,0,0,0,0,0-.3-.5-.3-.2-.2-.7,0-.7.7-1.6,1-2.2.4-1,.8-1.9,1.2-2.9.2-.5.3-1.1,0-1.6,0,0,0,0,0,0-1-1.3-3.1.4-4.2.7-.3-.9.2-2.3.2-3.3,0-.8-.3-1.3-1.1-1.4-.8-.1-1.3.5-1.5-.3-.2-.8.5-2.7.6-3.6,0-.3,0-.5,0-.8-.3-.8-1.5-.5-2-.3-.5.2-1,.4-1.6.6-.7.2-.9.4-1.1-.2-.1-.4.2-1.4.3-1.9,0-.6,0-1.3,0-1.9,0-.4,0-.7-.2-1-1-1.6-4.2.7-5.4.6,0,0-.4-3.8-.5-4.2,0-.3-.1-.5-.3-.7-1.3-1.6-4.1,1.3-5,2.2,0,0-.5-2.4-.5-2.6-.2-1.1-.4-2.2-.7-3.2-.3-1-1.1-1.6-2.2-1.4-.6.1-1.1.4-1.6.7-1.9,1.1-3.3,3.2-5.2,4.1-.8-1-1.4-2.3-2.2-3.3-.6-.7-1.4-.5-2,.2-.8.9-1.2,2-1.8,3-.2.3-.7,1.3-1,1.4-.8.1-1.6-2.3-2-2.9-.8-1.3-1.6-2.6-2.5-3.8-.5-.6-1.1-1.3-1.9-.9-.5.2-.8.7-1.1,1.1-.9,1.3-1.8,3.2-2.9,4.3-.5-.4-1-.9-1.4-1.4-.6-.6-1.7-1.5-2.6-.9-.3.2-.6.6-.8.9-.5.9-.8,1.8-1,2.8-.2.8,0,2-.5,2.6,0,0-3-3.6-3.2-3.9-1.7-2-2.3,1.5-3.2,2.2-.5-.6-1-1.2-1.4-1.9-.7-.9-1.4-.6-1.8.3-.5,1-.5,2.9-1.2,3.7-.4-.4-.6-1-1.1-1.2-1-.5-1.6.5-1.9,1.3-.2.4-.3,1-.6,1.4-.6.8-.5.2-1.2-.3-.6-.5-1.2-.3-1.5.4-.3.6-.4,1.5-.9,1.9-.4-.6-.7-1.4-1-2.1-.4-.9-.9-.7-1.4,0-.2.3-.3.8-.6,1.1-.5.5-.3.3-1-.1-.2-.1-.6-.2-.8,0-.8.4-.8,1.6-1,2.4-.6-.3-1.4-1.9-2.2-1.3-.3.2-.5.6-.6,1-.4,1.5-.8,0-1.6.7-.3.2-.4.6-.4.9-.2,1.3-.8.4-1.4-.2-.5-.5-1.2.2-1.5.5-.3.3-.6.9-1,.9-.4,0-.6-.6-1-.6-.6,0-.8.9-.9,1.3,0,0-1-.2-1.2.2,0,0,0,.1-.1.2-.2.1-.3-.1-.4-.3-.7-.7-1.2.6-1.3,1.1,0,.8-.4,1.9-1.5,1.5.1-1.5.8-3,.9-4.6,0-1.3,0-2.7-.4-4-.2-.7-.5-2-1.1-2.5-1.3-1.2-.7,1.6-.7,2.3,0,3.2-.8,6.3-2.4,9-.5.8-1.6,1-2.4.4-.2-.2-.4-.4-.5-.7-.3-1.1.7-2.7.9-3.8.2-1.1.8-4.5-.2-5.3-.2.2-.3.5-.3.8-.3,1.3-.8,2.5-1.4,3.7-.8,1.5-1.2,2.3-2.1.4-1.1-2.3-1.9-4.7-2.3-7.2-.3-1.9-1.3,1.5-1.3,2.1-.2,2,0,4.1.8,6.1.3,1,1,1.8,1.2,2.8,0,.4.2.9-.1,1.3-.3.4-.8.4-1.3.3-.5-.2-.9-.6-1.2-1.1-.9-1.3-1.7-2.7-2.2-4.2-.3-.8-.5-1.6-.6-2.4-.1-.6,0-1.6-.2-2.1,0-.2-.4-.4-.6-.2,0,0-.1.2-.2.3-1,2.5-.6,5.1.4,7.5.2.6.7,1.2.8,1.8.2.8,0,.7-.9.8-1.1,0-2.4-.5-3.4.4-.1,0-.2.2-.2.4,0,1.3,8.4,2.5,9.5,2.7,3.6.6,7.2.9,10.9,1.4,11.5,1.3,24.6,2.3,33.8,10.2,1.6,1.4,3.2,2.7,5,3.8,1.4.8,1.5,1.6,1.9,3,.4,1.4,1,2.8,1.2,4.2.4,2.1-.1,4.2-.2,6.3,0,2.2.2,7.3,3.2,7.3,1.3,0,2.6,0,3.9-.3,1.7-.3,1.1-1.7.8-3-.4-1.8-.4-3.6,0-5.4.3-1.4.6-2.7,1-4,.1-.5.4-3.4.9-3.6.4-.1,1,.3,1.4.4.7.2,1.4.3,2.1.3.3,0,.5,0,.8,0,2.7.8,2.2,4.9,2.7,7,.3,1.3,1.1,2.4,1.7,3.6.5.9.5,2.4,1.5,3,1.3.7,4.1.2,5.6.2.9,0,1.1-.5,1-1.4-.3-1.5-.9-3.3-.8-4.8,0,.2,1,1.5,1.1,1.9.5,1,1.1,2,1.6,3.1.3.7.4,2.7,1,3.1.2.2.5.2.8.2,1.6,0,3.2,0,4.8,0,1.6,0-.4-4.2-.7-4.9-.6-1.3-1.3-2.8-1.4-4.3,0-1-.3-3.5,1.3-3.5.3,0,.7.1,1,.2.9.3,1.8.4,2.8.4.4,0,.7,0,1,0,.7.2.8,1.1,1,1.7.5,1.3,1.4,2.4,2.1,3.6.9,1.4,1,2.7,1.4,4.2,0,.2.1.4.3.5.1.1.3.1.5.1,1.3,0,2.6,0,3.9,0,1.8-.1,1.1-2.4.7-3.5-.5-1.4-1.1-2.7-1.6-4-.3-.7-.6-1.4-.8-2.1-.4-1.5,1.3-1.1,2.4-1.2,1.6-.1,3.1-.5,4.6-1,2.9-.9,5.7-1.8,8.8-2.1,2.6-.2,5.2,0,7.9.2.8,0,1.7,0,2.4-.4.9-.6.9-1.2.6-1.9Z"/>
    <rect class="cls-1" width="256" height="256"/>
  </g>
</svg>